<svg xmlns="http://www.w3.org/2000/svg" xmlns:svg="http://www.w3.org/2000/svg" id="svg5" width="640" height="480" version="1.1" viewBox="0 0 169.333 127"><defs id="defs2"><style id="style888">.cls-1{fill:#eaeff0}.cls-2{fill:#2d4a60}.cls-3{fill:#263f52}.cls-4{fill:#00aae5}.cls-5{fill:#009ae0}.cls-6{fill:#bac2c6}</style></defs><g id="layer1"><g id="layer6"><path id="path894" d="M 266.73744,555.12505 253.90019,527.195 c -0.50125,-0.99071 -1.806,-3.76483 -2.66675,-3.76483 h -96 c -0.86075,0 -2.16525,2.77377 -2.66675,3.76483 l -12.83725,27.93005 a 2.664,3.7609481 0 0 0 -0.496,2.18753 v 3.76483 a 5.3385001,7.5367198 0 0 0 5.33325,7.52931 h 117.3335 a 5.3385001,7.5367198 0 0 0 5.33325,-7.52931 v -3.76483 a 2.664,3.7609481 0 0 0 -0.496,-2.18753 z" class="cls-1" style="stroke-width:.297045" transform="matrix(0.26458333,0,0,0.26458333,30.894488,-23.443859)"/><path id="path896" d="m 246.01719,440.60672 h -85.5675 a 7.8920001,11.141668 0 0 0 -7.883,11.12931 V 527.195 h 101.3335 v -75.45897 a 7.8920001,11.141668 0 0 0 -7.883,-11.12931 z" class="cls-2" style="stroke-width:.297045" transform="matrix(0.26458333,0,0,0.26458333,30.894488,-23.443859)"/><path id="path898" d="M 152.56669,451.73603 V 527.195 h 101.3335 l -98.41425,-84.09404 a 7.8687501,11.108844 0 0 0 -2.91925,8.63507 z" class="cls-3" style="stroke-width:.297045" transform="matrix(0.26458333,0,0,0.26458333,30.894488,-23.443859)"/><path id="path900" d="m 245.90019,448.13603 h -85.3335 a 2.66675,3.7648305 0 0 0 -2.66675,3.76483 v 67.76483 h 90.66675 v -67.76483 a 2.66675,3.7648305 0 0 0 -2.6665,-3.76483 z" class="cls-4" style="stroke-width:.297045" transform="matrix(0.26458333,0,0,0.26458333,30.894488,-23.443859)"/><path id="path902" d="m 161.37819,448.13603 h -0.8115 a 2.66675,3.7648305 0 0 0 -2.66675,3.76483 v 67.76483 h 87.18875 z" class="cls-5" style="stroke-width:.297045" transform="matrix(0.26458333,0,0,0.26458333,30.894488,-23.443859)"/><path id="path904" d="m 144.56669,568.60672 h 117.3335 a 5.3385001,7.5367198 0 0 0 5.33325,-7.52931 v -3.76483 h -128 v 3.76483 a 5.3385001,7.5367198 0 0 0 5.33325,7.52931 z" class="cls-6" style="stroke-width:.297045" transform="matrix(0.26458333,0,0,0.26458333,30.894488,-23.443859)"/><path id="path906" d="m 152.53094,546.01844 h 101.405 a 1.33325,1.8822388 0 0 0 1.15525,-2.82353 l -4.225,-10.35143 a 2.66675,3.7648305 0 0 0 -2.3105,-1.88506 h -90.64475 a 2.66675,3.7648305 0 0 0 -2.3105,1.88506 l -4.225,10.35143 a 1.33325,1.8822388 0 0 0 1.1555,2.82353 z" class="cls-6" style="stroke-width:.297045" transform="matrix(0.26458333,0,0,0.26458333,30.894488,-23.443859)"/><path id="path908" d="m 194.34744,548.75339 -0.3785,5.64707 a 0.66675001,0.94129586 0 0 0 0.6645,1.02988 h 17.2 a 0.66675001,0.94129586 0 0 0 0.66375,-1.02988 l -0.3785,-5.64707 a 0.66675001,0.94129586 0 0 0 -0.66375,-0.85271 h -16.44375 a 0.66675001,0.94129586 0 0 0 -0.66375,0.85271 z" class="cls-6" style="stroke-width:.297045" transform="matrix(0.26458333,0,0,0.26458333,30.894488,-23.443859)"/></g><g id="layer5"><g id="g1613" transform="matrix(0.57401132,0,0,0.57401132,135.46667,-7.8689039e-8)"><g id="g1518"><g id="g1506"><path style="fill:#556080" id="path1434" d="M 54.392,19 H 3.608 C 1.616,19 0,17.384 0,15.392 V 3.608 C 0,1.616 1.616,0 3.608,0 H 54.391 C 56.384,0 58,1.616 58,3.608 V 15.391 C 58,17.384 56.384,19 54.392,19 Z"/><path style="fill:#38454f" id="path1436" d="M 54.392,38 H 3.608 C 1.616,38 0,36.384 0,34.392 V 22.608 C 0,20.616 1.616,19 3.608,19 H 54.391 C 56.384,19 58,20.616 58,22.608 V 34.391 C 58,36.384 56.384,38 54.392,38 Z"/><path style="fill:#556080" id="path1438" d="M 54.392,57 H 3.608 C 1.616,57 0,55.384 0,53.392 V 41.608 C 0,39.616 1.616,38 3.608,38 H 54.391 C 56.384,38 58,39.616 58,41.608 V 53.391 C 58,55.384 56.384,57 54.392,57 Z"/><circle style="fill:#8697cb" id="circle1440" cx="9.5" cy="9.5" r="3.5"/><circle style="fill:#8697cb" id="circle1442" cx="49" cy="8" r="1"/><circle style="fill:#8697cb" id="circle1444" cx="45" cy="8" r="1"/><circle style="fill:#8697cb" id="circle1446" cx="51" cy="11" r="1"/><circle style="fill:#8697cb" id="circle1448" cx="47" cy="11" r="1"/><circle style="fill:#8697cb" id="circle1450" cx="41" cy="8" r="1"/><circle style="fill:#8697cb" id="circle1452" cx="43" cy="11" r="1"/><circle style="fill:#8697cb" id="circle1454" cx="37" cy="8" r="1"/><circle style="fill:#8697cb" id="circle1456" cx="39" cy="11" r="1"/><circle style="fill:#8697cb" id="circle1458" cx="33" cy="8" r="1"/><circle style="fill:#8697cb" id="circle1460" cx="35" cy="11" r="1"/><circle style="fill:#8697cb" id="circle1462" cx="9.5" cy="28.5" r="3.5"/><circle style="fill:#8697cb" id="circle1464" cx="49" cy="27" r="1"/><circle style="fill:#8697cb" id="circle1466" cx="45" cy="27" r="1"/><circle style="fill:#8697cb" id="circle1468" cx="51" cy="30" r="1"/><circle style="fill:#8697cb" id="circle1470" cx="47" cy="30" r="1"/><circle style="fill:#8697cb" id="circle1472" cx="41" cy="27" r="1"/><circle style="fill:#8697cb" id="circle1474" cx="43" cy="30" r="1"/><circle style="fill:#8697cb" id="circle1476" cx="37" cy="27" r="1"/><circle style="fill:#8697cb" id="circle1478" cx="39" cy="30" r="1"/><circle style="fill:#8697cb" id="circle1480" cx="33" cy="27" r="1"/><circle style="fill:#8697cb" id="circle1482" cx="35" cy="30" r="1"/><circle style="fill:#8697cb" id="circle1484" cx="9.5" cy="47.5" r="3.5"/><circle style="fill:#8697cb" id="circle1486" cx="49" cy="46" r="1"/><circle style="fill:#8697cb" id="circle1488" cx="45" cy="46" r="1"/><circle style="fill:#8697cb" id="circle1490" cx="51" cy="49" r="1"/><circle style="fill:#8697cb" id="circle1492" cx="47" cy="49" r="1"/><circle style="fill:#8697cb" id="circle1494" cx="41" cy="46" r="1"/><circle style="fill:#8697cb" id="circle1496" cx="43" cy="49" r="1"/><circle style="fill:#8697cb" id="circle1498" cx="37" cy="46" r="1"/><circle style="fill:#8697cb" id="circle1500" cx="39" cy="49" r="1"/><circle style="fill:#8697cb" id="circle1502" cx="33" cy="46" r="1"/><circle style="fill:#8697cb" id="circle1504" cx="35" cy="49" r="1"/></g><g id="g1516"><circle style="fill:#b1d3ef" id="circle1508" cx="46.5" cy="46.5" r="12.5"/><g id="g1514"><path style="fill:#556080" id="path1510" d="m 56.193,47.019 c -0.55,-0.113 -1.068,0.246 -1.175,0.788 C 54.198,51.975 50.616,55 46.5,55 43.149,55 40.153,52.994 38.711,50 H 44 v -2 h -6 -1 -1 v 8 h 2 v -3.341 c 1.976,2.656 5.085,4.341 8.5,4.341 5.068,0 9.477,-3.704 10.481,-8.807 0.106,-0.542 -0.246,-1.068 -0.788,-1.174 z"/><path style="fill:#556080" id="path1512" d="m 55,36.998 v 3.341 c -1.976,-2.657 -5.086,-4.341 -8.5,-4.341 -5.068,0 -9.477,3.704 -10.481,8.807 -0.106,0.542 0.246,1.068 0.788,1.174 0.55,0.113 1.068,-0.246 1.175,-0.788 0.82,-4.168 4.402,-7.193 8.519,-7.193 3.351,0 6.347,2.006 7.789,5 H 49 v 2 h 6 1 1 v -8 z"/></g></g></g></g></g><g id="layer4"><g id="g1432" transform="matrix(0.57401132,0,0,0.57401132,76.580765,7.2669815)"><g id="g1339" transform="translate(28.836659,-12.659996)"><g id="g1331"><path style="fill:#556080" id="path1259" d="M 54.392,19 H 3.608 C 1.616,19 0,17.384 0,15.392 V 3.608 C 0,1.616 1.616,0 3.608,0 H 54.391 C 56.384,0 58,1.616 58,3.608 V 15.391 C 58,17.384 56.384,19 54.392,19 Z"/><path style="fill:#38454f" id="path1261" d="M 54.392,38 H 3.608 C 1.616,38 0,36.384 0,34.392 V 22.608 C 0,20.616 1.616,19 3.608,19 H 54.391 C 56.384,19 58,20.616 58,22.608 V 34.391 C 58,36.384 56.384,38 54.392,38 Z"/><path style="fill:#556080" id="path1263" d="M 54.392,57 H 3.608 C 1.616,57 0,55.384 0,53.392 V 41.608 C 0,39.616 1.616,38 3.608,38 H 54.391 C 56.384,38 58,39.616 58,41.608 V 53.391 C 58,55.384 56.384,57 54.392,57 Z"/><circle style="fill:#8697cb" id="circle1265" cx="9.5" cy="9.5" r="3.5"/><circle style="fill:#8697cb" id="circle1267" cx="49" cy="8" r="1"/><circle style="fill:#8697cb" id="circle1269" cx="45" cy="8" r="1"/><circle style="fill:#8697cb" id="circle1271" cx="51" cy="11" r="1"/><circle style="fill:#8697cb" id="circle1273" cx="47" cy="11" r="1"/><circle style="fill:#8697cb" id="circle1275" cx="41" cy="8" r="1"/><circle style="fill:#8697cb" id="circle1277" cx="43" cy="11" r="1"/><circle style="fill:#8697cb" id="circle1279" cx="37" cy="8" r="1"/><circle style="fill:#8697cb" id="circle1281" cx="39" cy="11" r="1"/><circle style="fill:#8697cb" id="circle1283" cx="33" cy="8" r="1"/><circle style="fill:#8697cb" id="circle1285" cx="35" cy="11" r="1"/><circle style="fill:#8697cb" id="circle1287" cx="9.5" cy="28.5" r="3.5"/><circle style="fill:#8697cb" id="circle1289" cx="49" cy="27" r="1"/><circle style="fill:#8697cb" id="circle1291" cx="45" cy="27" r="1"/><circle style="fill:#8697cb" id="circle1293" cx="51" cy="30" r="1"/><circle style="fill:#8697cb" id="circle1295" cx="47" cy="30" r="1"/><circle style="fill:#8697cb" id="circle1297" cx="41" cy="27" r="1"/><circle style="fill:#8697cb" id="circle1299" cx="43" cy="30" r="1"/><circle style="fill:#8697cb" id="circle1301" cx="37" cy="27" r="1"/><circle style="fill:#8697cb" id="circle1303" cx="39" cy="30" r="1"/><circle style="fill:#8697cb" id="circle1305" cx="33" cy="27" r="1"/><circle style="fill:#8697cb" id="circle1307" cx="35" cy="30" r="1"/><circle style="fill:#8697cb" id="circle1309" cx="9.5" cy="47.5" r="3.5"/><circle style="fill:#8697cb" id="circle1311" cx="49" cy="46" r="1"/><circle style="fill:#8697cb" id="circle1313" cx="45" cy="46" r="1"/><circle style="fill:#8697cb" id="circle1315" cx="51" cy="49" r="1"/><circle style="fill:#8697cb" id="circle1317" cx="47" cy="49" r="1"/><circle style="fill:#8697cb" id="circle1319" cx="41" cy="46" r="1"/><circle style="fill:#8697cb" id="circle1321" cx="43" cy="49" r="1"/><circle style="fill:#8697cb" id="circle1323" cx="37" cy="46" r="1"/><circle style="fill:#8697cb" id="circle1325" cx="39" cy="49" r="1"/><circle style="fill:#8697cb" id="circle1327" cx="33" cy="46" r="1"/><circle style="fill:#8697cb" id="circle1329" cx="35" cy="49" r="1"/></g><g id="g1337"><circle style="fill:#26b999" id="circle1333" cx="47" cy="47" r="12"/><path style="fill:#fff" id="path1335" d="m 53.571,41.179 c -0.455,-0.316 -1.077,-0.204 -1.392,0.25 l -5.596,8.04 -3.949,-3.242 c -0.426,-0.351 -1.057,-0.288 -1.407,0.139 -0.351,0.427 -0.289,1.057 0.139,1.407 l 4.786,3.929 c 0.18,0.147 0.404,0.227 0.634,0.227 0.045,0 0.091,-0.003 0.137,-0.009 0.276,-0.039 0.524,-0.19 0.684,-0.419 l 6.214,-8.929 c 0.315,-0.454 0.203,-1.077 -0.25,-1.393 z"/></g></g></g></g><g id="layer3"><g id="g1257" transform="matrix(0.57401132,0,0,0.57401132,42.333333,-7.8689039e-8)"><g id="g1164"><g id="g1156"><path style="fill:#556080" id="path1084" d="M 54.392,19 H 3.608 C 1.616,19 0,17.384 0,15.392 V 3.608 C 0,1.616 1.616,0 3.608,0 H 54.391 C 56.384,0 58,1.616 58,3.608 V 15.391 C 58,17.384 56.384,19 54.392,19 Z"/><path style="fill:#38454f" id="path1086" d="M 54.392,38 H 3.608 C 1.616,38 0,36.384 0,34.392 V 22.608 C 0,20.616 1.616,19 3.608,19 H 54.391 C 56.384,19 58,20.616 58,22.608 V 34.391 C 58,36.384 56.384,38 54.392,38 Z"/><path style="fill:#556080" id="path1088" d="M 54.392,57 H 3.608 C 1.616,57 0,55.384 0,53.392 V 41.608 C 0,39.616 1.616,38 3.608,38 H 54.391 C 56.384,38 58,39.616 58,41.608 V 53.391 C 58,55.384 56.384,57 54.392,57 Z"/><circle style="fill:#8697cb" id="circle1090" cx="9.5" cy="9.5" r="3.5"/><circle style="fill:#8697cb" id="circle1092" cx="49" cy="8" r="1"/><circle style="fill:#8697cb" id="circle1094" cx="45" cy="8" r="1"/><circle style="fill:#8697cb" id="circle1096" cx="51" cy="11" r="1"/><circle style="fill:#8697cb" id="circle1098" cx="47" cy="11" r="1"/><circle style="fill:#8697cb" id="circle1100" cx="41" cy="8" r="1"/><circle style="fill:#8697cb" id="circle1102" cx="43" cy="11" r="1"/><circle style="fill:#8697cb" id="circle1104" cx="37" cy="8" r="1"/><circle style="fill:#8697cb" id="circle1106" cx="39" cy="11" r="1"/><circle style="fill:#8697cb" id="circle1108" cx="33" cy="8" r="1"/><circle style="fill:#8697cb" id="circle1110" cx="35" cy="11" r="1"/><circle style="fill:#8697cb" id="circle1112" cx="9.5" cy="28.5" r="3.5"/><circle style="fill:#8697cb" id="circle1114" cx="49" cy="27" r="1"/><circle style="fill:#8697cb" id="circle1116" cx="45" cy="27" r="1"/><circle style="fill:#8697cb" id="circle1118" cx="51" cy="30" r="1"/><circle style="fill:#8697cb" id="circle1120" cx="47" cy="30" r="1"/><circle style="fill:#8697cb" id="circle1122" cx="41" cy="27" r="1"/><circle style="fill:#8697cb" id="circle1124" cx="43" cy="30" r="1"/><circle style="fill:#8697cb" id="circle1126" cx="37" cy="27" r="1"/><circle style="fill:#8697cb" id="circle1128" cx="39" cy="30" r="1"/><circle style="fill:#8697cb" id="circle1130" cx="33" cy="27" r="1"/><circle style="fill:#8697cb" id="circle1132" cx="35" cy="30" r="1"/><circle style="fill:#8697cb" id="circle1134" cx="9.5" cy="47.5" r="3.5"/><circle style="fill:#8697cb" id="circle1136" cx="49" cy="46" r="1"/><circle style="fill:#8697cb" id="circle1138" cx="45" cy="46" r="1"/><circle style="fill:#8697cb" id="circle1140" cx="51" cy="49" r="1"/><circle style="fill:#8697cb" id="circle1142" cx="47" cy="49" r="1"/><circle style="fill:#8697cb" id="circle1144" cx="41" cy="46" r="1"/><circle style="fill:#8697cb" id="circle1146" cx="43" cy="49" r="1"/><circle style="fill:#8697cb" id="circle1148" cx="37" cy="46" r="1"/><circle style="fill:#8697cb" id="circle1150" cx="39" cy="49" r="1"/><circle style="fill:#8697cb" id="circle1152" cx="33" cy="46" r="1"/><circle style="fill:#8697cb" id="circle1154" cx="35" cy="49" r="1"/></g><g id="g1162"><circle style="fill:#ed7161" id="circle1158" cx="47" cy="47" r="12"/><path style="fill:#fff" id="path1160" d="m 48.414,47 3.536,-3.536 c 0.391,-0.391 0.391,-1.023 0,-1.414 -0.391,-0.391 -1.023,-0.391 -1.414,0 L 47,45.586 43.464,42.05 c -0.391,-0.391 -1.023,-0.391 -1.414,0 -0.391,0.391 -0.391,1.023 0,1.414 L 45.586,47 42.05,50.536 c -0.391,0.391 -0.391,1.023 0,1.414 0.195,0.195 0.451,0.293 0.707,0.293 0.256,0 0.512,-0.098 0.707,-0.293 L 47,48.414 50.536,51.95 c 0.195,0.195 0.451,0.293 0.707,0.293 0.256,0 0.512,-0.098 0.707,-0.293 0.391,-0.391 0.391,-1.023 0,-1.414 z"/></g></g></g></g><g id="layer2"><g id="g1082" transform="matrix(0.56566094,0,0,0.5755848,-9.2327809e-7,-0.2877924)"><path style="fill:#556080" id="path924" d="M 54.392,19.5 H 3.608 C 1.616,19.5 0,17.884 0,15.892 V 4.108 C 0,2.116 1.616,0.5 3.608,0.5 H 54.391 C 56.384,0.5 58,2.116 58,4.108 v 11.783 c 0,1.993 -1.616,3.609 -3.608,3.609 z"/><path style="fill:#424a60" id="path926" d="M 54.392,38.5 H 3.608 C 1.616,38.5 0,36.884 0,34.892 V 23.108 C 0,21.116 1.616,19.5 3.608,19.5 h 50.783 c 1.993,0 3.608,1.616 3.608,3.608 V 34.891 C 58,36.884 56.384,38.5 54.392,38.5 Z"/><path style="fill:#556080" id="path928" d="M 54.392,57.5 H 3.608 C 1.616,57.5 0,55.884 0,53.892 V 42.108 C 0,40.116 1.616,38.5 3.608,38.5 h 50.783 c 1.993,0 3.608,1.616 3.608,3.608 V 53.891 C 58,55.884 56.384,57.5 54.392,57.5 Z"/><circle style="fill:#7383bf" id="circle930" cx="9.5" cy="10" r="3.5"/><circle style="fill:#7383bf" id="circle932" cx="49" cy="8.5" r="1"/><circle style="fill:#7383bf" id="circle934" cx="45" cy="8.5" r="1"/><circle style="fill:#7383bf" id="circle936" cx="51" cy="11.5" r="1"/><circle style="fill:#7383bf" id="circle938" cx="47" cy="11.5" r="1"/><circle style="fill:#7383bf" id="circle940" cx="41" cy="8.5" r="1"/><circle style="fill:#7383bf" id="circle942" cx="43" cy="11.5" r="1"/><circle style="fill:#7383bf" id="circle944" cx="37" cy="8.5" r="1"/><circle style="fill:#7383bf" id="circle946" cx="39" cy="11.5" r="1"/><circle style="fill:#7383bf" id="circle948" cx="33" cy="8.5" r="1"/><circle style="fill:#7383bf" id="circle950" cx="35" cy="11.5" r="1"/><circle style="fill:#7383bf" id="circle952" cx="9.5" cy="29" r="3.5"/><circle style="fill:#7383bf" id="circle954" cx="49" cy="27.5" r="1"/><circle style="fill:#7383bf" id="circle956" cx="45" cy="27.5" r="1"/><circle style="fill:#7383bf" id="circle958" cx="51" cy="30.5" r="1"/><circle style="fill:#7383bf" id="circle960" cx="47" cy="30.5" r="1"/><circle style="fill:#7383bf" id="circle962" cx="41" cy="27.5" r="1"/><circle style="fill:#7383bf" id="circle964" cx="43" cy="30.5" r="1"/><circle style="fill:#7383bf" id="circle966" cx="37" cy="27.5" r="1"/><circle style="fill:#7383bf" id="circle968" cx="39" cy="30.5" r="1"/><circle style="fill:#7383bf" id="circle970" cx="33" cy="27.5" r="1"/><circle style="fill:#7383bf" id="circle972" cx="35" cy="30.5" r="1"/><circle style="fill:#7383bf" id="circle974" cx="9.5" cy="48" r="3.5"/><circle style="fill:#7383bf" id="circle976" cx="49" cy="46.5" r="1"/><circle style="fill:#7383bf" id="circle978" cx="45" cy="46.5" r="1"/><circle style="fill:#7383bf" id="circle980" cx="51" cy="49.5" r="1"/><circle style="fill:#7383bf" id="circle982" cx="47" cy="49.5" r="1"/><circle style="fill:#7383bf" id="circle984" cx="41" cy="46.5" r="1"/><circle style="fill:#7383bf" id="circle986" cx="43" cy="49.5" r="1"/><circle style="fill:#7383bf" id="circle988" cx="37" cy="46.5" r="1"/><circle style="fill:#7383bf" id="circle990" cx="39" cy="49.5" r="1"/><circle style="fill:#7383bf" id="circle992" cx="33" cy="46.5" r="1"/><circle style="fill:#7383bf" id="circle994" cx="35" cy="49.5" r="1"/></g></g></g></svg>